<svg xmlns="http://www.w3.org/2000/svg" width="192" height="192" viewBox="0 0 192 192"><rect width="100%" height="100%" fill="#4f46e5"/><path fill="#ffffff" d="M52.68 90.385q0 5 1.34 8.97t3.84 6.72 6.05 4.22 8 1.47 8-1.47 6.03-4.22 3.82-6.72q1.35-3.97 1.35-8.97 0-4.99-1.35-8.96-1.34-3.97-3.82-6.74-2.48-2.78-6.03-4.25t-8-1.47-8 1.47-6.05 4.25q-2.5 2.77-3.84 6.74t-1.34 8.96m37.71 25.46 15.42 16.8h-9.33q-2.01 0-3.63-.55t-2.96-2.02l-8.91-9.82q-2.14.58-4.38.88-2.25.29-4.69.29-6.89 0-12.56-2.33t-9.72-6.49-6.28-9.85q-2.22-5.69-2.22-12.37 0-6.67 2.22-12.36 2.23-5.7 6.28-9.85 4.05-4.16 9.72-6.49t12.56-2.33q4.62 0 8.7 1.07 4.07 1.07 7.47 3.02t6.11 4.75q2.71 2.79 4.6 6.23 1.89 3.45 2.88 7.48t.99 8.48q0 4.08-.84 7.79-.84 3.72-2.42 6.96-1.57 3.23-3.84 5.94t-5.17 4.77m60.48-46.83h-26.96v16.84h21.25v8.69h-21.25v17.18h26.96v9.03h-38.3v-60.73h38.3z"/></svg>