<svg xmlns="http://www.w3.org/2000/svg" width="512" height="512" viewBox="0 0 512 512"><rect width="100%" height="100%" fill="#4f46e5"/><path fill="#ffffff" d="M140.985 241.12q0 13.26 3.57 23.8t10.2 17.84q6.64 7.3 16.06 11.21 9.42 3.9 21.24 3.9t21.24-3.9q9.42-3.91 16-11.21t10.15-17.84q3.56-10.54 3.56-23.8 0-13.27-3.56-23.81-3.57-10.54-10.15-17.9-6.58-7.35-16-11.26-9.42-3.9-21.24-3.9t-21.24 3.9q-9.42 3.91-16.06 11.26-6.63 7.36-10.2 17.9t-3.57 23.81m100.13 67.56 40.92 44.6h-24.75q-5.36 0-9.65-1.44-4.29-1.45-7.86-5.36l-23.64-26.09q-5.68 1.56-11.65 2.34-5.96.78-12.43.78-18.29 0-33.34-6.18-15.05-6.19-25.81-17.23t-16.67-26.15-5.91-32.83q0-17.73 5.91-32.84t16.67-26.15 25.81-17.22q15.05-6.19 33.34-6.19 12.26 0 23.08 2.84t19.85 8.03q9.03 5.18 16.22 12.6 7.19 7.41 12.21 16.56 5.02 9.14 7.64 19.84 2.62 10.71 2.62 22.53 0 10.81-2.23 20.68t-6.41 18.45q-4.19 8.59-10.21 15.78t-13.71 12.65m160.56-124.32h-71.58v44.71h56.41v23.08h-56.41v45.61h71.58v23.97h-101.69V160.5h101.69z"/></svg>